<svg width="512" height="512" version="1.1" xmlns="http://www.w3.org/2000/svg" desc="Created with imagetracer.js version 1.2.6" ><path fill="rgb(249,252,254)" stroke="rgb(249,252,254)" stroke-width="1" opacity="0.9921568627450981" d="M 201.5 137 Q 212.1 135.4 217.5 139 L 323 244.5 Q 327.8 249.7 326 261.5 L 323 267.5 L 218.5 372 Q 213.3 376.8 201.5 375 L 191 368.5 Q 184 363 186 348.5 L 189 342.5 L 275 255.5 L 189 169.5 Q 184.2 164.3 186 152.5 L 192.5 142 L 201.5 137 Z " /><path fill="rgb(54,157,241)" stroke="rgb(54,157,241)" stroke-width="1" opacity="0.996078431372549" d="M 216.5 0 L 245 0.5 L 216.5 1 L 216.5 0 Z " /><path fill="rgb(54,157,241)" stroke="rgb(54,157,241)" stroke-width="1" opacity="0.996078431372549" d="M 269.5 0 L 297 0.5 L 269.5 1 L 269.5 0 Z " /><path fill="rgb(54,157,241)" stroke="rgb(54,157,241)" stroke-width="1" opacity="0.996078431372549" d="M 201.5 1 L 215 1.5 L 161.5 6 L 130.5 13 L 111.5 19 Q 71.8 34.3 46 63.5 Q 34.3 76.8 26 93.5 L 19 110.5 L 8 146.5 L 4 169.5 L 3 189.5 L 2 190.5 L 0.5 255 L 0 206.5 L 1 205.5 L 1 189.5 L 2 188.5 L 2 178.5 L 3 177.5 L 5 155.5 L 18 109.5 Q 30.4 74.4 55.5 52 Q 79.3 29.3 113.5 17 L 155.5 6 L 177.5 4 L 178.5 3 L 187.5 3 L 188.5 2 L 200.5 2 L 201.5 1 Z " /><path fill="rgb(54,157,241)" stroke="rgb(54,157,241)" stroke-width="1" opacity="0.996078431372549" d="M 298.5 1 L 312.5 1 L 313.5 2 L 324.5 2 L 325.5 3 L 351.5 5 L 383.5 12 L 402.5 18 Q 436.8 31.2 460 55.5 Q 476.9 73.1 488 96.5 L 495 113.5 L 506 150.5 L 508 168.5 L 509 169.5 L 509 177.5 L 510 178.5 L 511 206.5 L 512 207.5 L 512 307.5 L 511 308.5 L 510 338.5 L 509 339.5 L 509 348.5 L 508 349.5 L 506 368.5 L 495 405.5 Q 482.3 439.3 457.5 461 Q 428.8 488.3 384.5 500 L 353.5 507 L 331.5 509 L 330.5 510 L 304.5 511 L 303.5 512 L 262.5 512 L 262.5 511 L 303.5 511 L 304.5 510 L 330.5 509 L 331.5 508 L 353.5 506 L 387.5 498 Q 438.8 483.3 469 447.5 Q 481.4 432.9 490 414.5 L 498 393.5 L 505 367.5 L 507 348.5 L 508 347.5 L 508 339.5 L 509 338.5 L 510 308.5 L 511 307.5 L 511 207.5 L 510 206.5 L 510 190.5 L 509 189.5 L 509 179.5 L 508 178.5 L 508 169.5 L 507 168.5 L 506 156.5 Q 500.9 132.5 493 111.5 Q 479.3 75.2 453.5 51 Q 428 26.5 389.5 15 L 350.5 6 L 324.5 4 L 323.5 3 L 312.5 3 L 311.5 2 L 298.5 2 L 298.5 1 Z " /><path fill="rgb(54,157,241)" stroke="rgb(54,157,241)" stroke-width="1" opacity="0.996078431372549" d="M 0.5 257 L 2 321.5 L 3 322.5 L 5 349.5 L 9 369.5 L 19 400.5 L 30 424.5 Q 41.6 445.4 58.5 461 Q 86.3 487.7 129.5 499 L 160.5 506 L 181.5 508 L 182.5 509 L 207.5 510 L 208.5 511 L 250 511.5 L 208.5 512 L 207.5 511 L 193.5 511 L 192.5 510 L 182.5 510 L 181.5 509 L 160.5 507 L 132.5 501 L 112.5 495 Q 76.2 481.8 52 456.5 Q 38.1 441.9 28 423.5 L 17 398.5 L 9 373.5 L 4 350.5 L 2 323.5 L 1 322.5 L 1 306.5 L 0 305.5 L 0.5 257 Z " /><path fill="rgb(0,0,0)" stroke="rgb(0,0,0)" stroke-width="1" opacity="0" d="M 0 0 L 216 0.5 L 188.5 2 L 187.5 3 L 161.5 5 L 141.5 9 L 113.5 17 Q 72.4 31.9 46 61.5 Q 25.2 84.7 15 118.5 L 4 161.5 L 2 188.5 L 1 189.5 L 0.5 206 L 0 0 Z " /><path fill="rgb(0,0,0)" stroke="rgb(0,0,0)" stroke-width="1" opacity="0" d="M 297.5 0 L 512 0 L 512 206.5 L 511 206.5 L 511 189.5 L 510 188.5 L 510 178.5 L 509 177.5 L 507 155.5 L 495 113.5 Q 482 76.5 456.5 52 Q 430.2 26.3 390.5 14 L 351.5 5 L 325.5 3 L 324.5 2 L 313.5 2 L 312.5 1 L 297.5 1 L 297.5 0 Z " /><path fill="rgb(0,0,0)" stroke="rgb(0,0,0)" stroke-width="1" opacity="0" d="M 0.5 306 Q 3.6 407.4 55.5 460 Q 78.7 482.8 112.5 495 L 132.5 501 L 160.5 507 L 181.5 509 L 182.5 510 L 208 511.5 L 0 512 L 0.5 306 Z " /><path fill="rgb(0,0,0)" stroke="rgb(0,0,0)" stroke-width="1" opacity="0" d="M 511.5 308 L 512 512 L 304 511.5 L 319.5 511 L 320.5 510 L 330.5 510 L 331.5 509 L 353.5 507 L 384.5 500 L 403.5 494 Q 443.2 478.7 469 449.5 Q 480 437 488 421.5 L 502 384.5 L 506 368.5 L 508 349.5 L 509 348.5 L 511.5 308 Z " /><path fill="rgb(55,157,241)" stroke="rgb(55,157,241)" stroke-width="1" opacity="1" d="M 245.5 0 L 297.5 1 L 298.5 2 L 323.5 3 L 324.5 4 L 333.5 4 L 334.5 5 L 356.5 7 L 382.5 13 Q 431.5 26 461 58.5 Q 477.3 76.2 488 99.5 L 504 146.5 L 508 169.5 L 509 189.5 L 510 190.5 L 510 206.5 L 511 207.5 L 511 307.5 L 510 308.5 L 510 325.5 L 509 326.5 L 509 338.5 L 508 339.5 L 507 355.5 L 504 372.5 L 496 399.5 Q 482.5 438 454.5 462 Q 435.7 479.1 410.5 490 L 387.5 498 L 367.5 503 L 353.5 506 L 331.5 508 L 330.5 509 L 320.5 509 L 319.5 510 L 250.5 512 L 249.5 511 L 208.5 511 L 207.5 510 L 182.5 509 L 181.5 508 L 160.5 506 L 122.5 497 Q 78.6 483.4 51 453.5 Q 39 440.5 30 424.5 L 19 400.5 L 9 369.5 L 5 349.5 L 3 322.5 L 2 321.5 L 2 305.5 L 1 304.5 L 1 257.5 L 0 255.5 L 1 254.5 L 1 207.5 L 2 206.5 L 2 190.5 L 3 189.5 L 5 162.5 L 9 142.5 L 19 110.5 L 26 93.5 Q 38.1 69.1 57.5 52 Q 86.3 24.8 130.5 13 L 161.5 6 L 169.5 6 L 178.5 4 L 214.5 2 L 215.5 1 L 244.5 1 L 245.5 0 Z M 202 137 L 193 142 L 186 153 Q 184 164 189 170 L 275 256 L 189 343 L 186 349 Q 184 363 191 369 L 202 375 Q 213 377 219 372 L 323 268 L 326 262 Q 328 250 323 245 L 218 139 Q 212 135 202 137 Z " /></svg>