<?xml version="1.0" encoding="UTF-8"?>
<svg version="1.1" xmlns="http://www.w3.org/2000/svg" width="512" height="512">
<path d="M0 0 C1.72733607 -0.00735005 3.45466725 -0.01593899 5.18199158 -0.02566528 C9.84691956 -0.04777899 14.51167041 -0.05081749 19.17664361 -0.04891777 C23.07616995 -0.04879772 26.97565921 -0.0573748 30.87517518 -0.06569529 C40.07110574 -0.08488863 49.26694552 -0.08782627 58.46289062 -0.08105469 C67.9471048 -0.07439977 77.43093146 -0.09734575 86.91506702 -0.13436842 C95.06816833 -0.1650392 103.2211447 -0.17642881 111.37430257 -0.1725316 C116.23977466 -0.17046331 121.10494434 -0.17595749 125.97036171 -0.20042419 C130.53997915 -0.22264863 135.10896309 -0.22084972 139.67858315 -0.20049667 C141.35516856 -0.19708022 143.03179633 -0.20220307 144.70832443 -0.21648026 C146.9970317 -0.23462718 149.2835785 -0.22196172 151.57221985 -0.20153809 C152.85250722 -0.2022506 154.13279459 -0.2029631 155.45187855 -0.2036972 C159.72378755 0.59488592 161.17997403 1.99427455 163.7878418 5.41992188 C164.1178418 7.06992188 164.4478418 8.71992187 164.7878418 10.41992188 C172.7078418 10.41992188 180.6278418 10.41992188 188.7878418 10.41992188 C189.1178418 8.43992187 189.4478418 6.45992188 189.7878418 4.41992188 C191.96455131 1.83507933 193.60400726 0.64939705 196.9440918 0.00195312 C201.25121876 -0.26365304 203.22601936 0.01025968 206.7878418 2.60742188 C208.7878418 5.41992188 208.7878418 5.41992188 209.7878418 10.41992188 C217.7078418 10.41992188 225.6278418 10.41992188 233.7878418 10.41992188 C234.1178418 8.43992187 234.4478418 6.45992188 234.7878418 4.41992188 C237.48201561 1.43461813 239.11664298 0.52184714 243.10260105 -0.08344269 C245.00807414 -0.08570484 245.00807414 -0.08570484 246.95204163 -0.0880127 C247.66246862 -0.09425266 248.37289562 -0.10049262 249.10485071 -0.10692167 C251.4800711 -0.12284747 253.85426459 -0.11024951 256.22949219 -0.09765625 C257.93488157 -0.10307792 259.64026626 -0.11020084 261.34564209 -0.11889648 C265.97628606 -0.13713712 270.60657363 -0.13005672 275.23722386 -0.11738014 C280.09097448 -0.10724481 284.94469482 -0.11664838 289.79844666 -0.1229248 C297.95699528 -0.13020451 306.11539914 -0.12061011 314.27392578 -0.1015625 C323.6845828 -0.07984418 333.09489247 -0.08680707 342.50554091 -0.10886812 C350.59751213 -0.12707399 358.68937927 -0.12955364 366.78136438 -0.11911345 C371.60850767 -0.11290037 376.43548831 -0.11198133 381.26262093 -0.1252594 C385.80916534 -0.13689108 390.35526689 -0.12865976 394.90176392 -0.10568237 C396.56249192 -0.1004319 398.22325774 -0.10184561 399.88397026 -0.11073303 C416.06375055 -0.18927508 429.31718739 3.4482497 441.5378418 14.60742188 C450.70273982 24.43325005 455.27305033 36.60833489 455.17552185 49.89376831 C455.18360016 51.24145678 455.18360016 51.24145678 455.19184166 52.61637127 C455.20603793 55.5977437 455.19903821 58.57866689 455.19189453 61.56005859 C455.19760247 63.70952712 455.20456837 65.85899262 455.21269226 68.00845337 C455.23059232 73.82670712 455.22946111 79.6448098 455.22374988 85.46308279 C455.22065332 90.32873715 455.22675572 95.19436269 455.23278862 100.06001294 C455.24682205 111.54312559 455.24528252 123.02616384 455.23388672 134.50927734 C455.22240796 146.33700404 455.23647995 158.16450392 455.26328319 169.99220073 C455.28546886 180.16492107 455.29207106 190.33757035 455.28620678 200.51031315 C455.28284273 206.57816763 455.28521564 212.64587676 455.30245781 218.71371078 C455.31797034 224.42167182 455.31392341 230.12929793 455.29515266 235.83724594 C455.29147866 237.92531268 455.29454034 240.01340448 455.30503845 242.10144806 C455.38662466 259.6782284 452.90730776 273.6922933 440.6003418 287.16992188 C427.86672318 299.04701906 413.83132925 300.8708385 397.26565552 300.80760193 C395.48366011 300.8117786 393.70166736 300.81725794 391.91967952 300.82392174 C387.03990718 300.8383513 382.16030409 300.83413939 377.28052258 300.82675493 C372.01114656 300.82201941 366.74180694 300.83453652 361.47244263 300.84477234 C351.15589996 300.86195814 340.83941821 300.86280079 330.52286495 300.85755944 C322.13647191 300.85351609 313.75009686 300.85496326 305.36370468 300.86030769 C303.57249996 300.86143033 303.57249996 300.86143033 301.74510928 300.86257564 C299.31912939 300.86410713 296.89314951 300.86564548 294.46716963 300.86719061 C271.72276896 300.88091487 248.9784027 300.87547848 226.23400281 300.86400539 C205.43342899 300.85407319 184.63294411 300.86701364 163.83238401 300.89093959 C142.46572575 300.91533122 121.09910892 300.92493829 99.73243701 300.91828686 C87.74012787 300.91479478 75.74788714 300.91702603 63.75558853 300.93453789 C53.54681158 300.94926062 43.33815121 300.94989429 33.12937655 300.93246698 C27.9228123 300.92395527 22.71645633 300.92181176 17.50990295 300.93711853 C12.73914744 300.95097024 7.96877853 300.94619609 3.19804536 300.92687929 C1.47674354 300.92312049 -0.24458927 300.92603779 -1.96586345 300.93649095 C-18.29334181 301.02855718 -31.61506269 297.50705252 -43.9621582 286.23242188 C-53.12705623 276.4065937 -57.69736674 264.23150886 -57.59983826 250.94607544 C-57.60522379 250.04761646 -57.61060933 249.14915748 -57.61615807 248.22347248 C-57.63035434 245.24210005 -57.62335461 242.26117686 -57.61621094 239.27978516 C-57.62191888 237.13031663 -57.62888478 234.98085113 -57.63700867 232.83139038 C-57.65490873 227.01313663 -57.65377752 221.19503395 -57.64806628 215.37676096 C-57.64496972 210.5111066 -57.65107213 205.64548106 -57.65710503 200.77983081 C-57.67113846 189.29671816 -57.66959892 177.81367991 -57.65820312 166.33056641 C-57.64672437 154.50283971 -57.66079636 142.67533983 -57.6875996 130.84764302 C-57.70978526 120.67492268 -57.71638746 110.5022734 -57.71052319 100.3295306 C-57.70715914 94.26167612 -57.70953205 88.19396699 -57.72677422 82.12613297 C-57.74228675 76.41817193 -57.73823981 70.71054582 -57.71946907 65.00259781 C-57.71579507 62.91453107 -57.71885675 60.82643927 -57.72935486 58.73839569 C-57.81094107 41.16161535 -55.33162416 27.14755045 -43.0246582 13.66992188 C-30.40034835 1.89478084 -16.43865278 -0.03319129 0 0 Z " fill="#FDD88E" transform="translate(57.212158203125,105.580078125)"/>
<path d="M0 0 C1.72733607 -0.00735005 3.45466725 -0.01593899 5.18199158 -0.02566528 C9.84691956 -0.04777899 14.51167041 -0.05081749 19.17664361 -0.04891777 C23.07616995 -0.04879772 26.97565921 -0.0573748 30.87517518 -0.06569529 C40.07110574 -0.08488863 49.26694552 -0.08782627 58.46289062 -0.08105469 C67.9471048 -0.07439977 77.43093146 -0.09734575 86.91506702 -0.13436842 C95.06816833 -0.1650392 103.2211447 -0.17642881 111.37430257 -0.1725316 C116.23977466 -0.17046331 121.10494434 -0.17595749 125.97036171 -0.20042419 C130.53997915 -0.22264863 135.10896309 -0.22084972 139.67858315 -0.20049667 C141.35516856 -0.19708022 143.03179633 -0.20220307 144.70832443 -0.21648026 C146.9970317 -0.23462718 149.2835785 -0.22196172 151.57221985 -0.20153809 C152.85250722 -0.2022506 154.13279459 -0.2029631 155.45187855 -0.2036972 C159.66641922 0.58416159 161.12791308 2.13256107 163.7878418 5.41992188 C165.26423001 8.92634387 164.80625705 10.36058383 163.6628418 14.04492188 C161.591561 17.7732273 160.58090452 18.65661094 156.7878418 20.41992188 C153.53555202 20.78792286 153.53555202 20.78792286 149.77549744 20.77827454 C148.73435825 20.78189468 148.73435825 20.78189468 147.67218596 20.78558797 C145.35234942 20.790181 143.03315434 20.77353322 140.71337891 20.75708008 C139.04740407 20.7562735 137.38142806 20.75686835 135.7154541 20.75875854 C132.12939477 20.76031918 128.54350366 20.75293564 124.95747185 20.7389164 C119.27867983 20.71776101 113.60009278 20.72255047 107.92127991 20.73197937 C91.77331476 20.7548386 75.62547139 20.74301364 59.47753906 20.70483398 C50.55766872 20.68397367 41.63805323 20.68475863 32.71818739 20.70836896 C27.08209251 20.72199575 21.44690419 20.70897869 15.81090057 20.67577136 C12.28989599 20.66134574 8.76929017 20.67213746 5.2483139 20.68975449 C3.62626622 20.69291036 2.00415941 20.68596985 0.38221169 20.66768837 C-10.39663413 20.55347592 -19.55506301 21.77977562 -28.12825108 29.04330921 C-34.36967225 35.69929513 -36.8204499 43.57146471 -36.72009277 52.52122498 C-36.72633274 53.39165579 -36.7325727 54.26208661 -36.73900175 55.15889412 C-36.75485089 58.05144293 -36.74235931 60.94313954 -36.72973633 63.83569336 C-36.73516107 65.91929615 -36.74228571 68.00289509 -36.75097656 70.08648682 C-36.76917188 75.72910347 -36.76215762 81.37142672 -36.74946022 87.01404834 C-36.73931162 92.9284052 -36.74873119 98.84273746 -36.75500488 104.75709534 C-36.76227642 114.68910212 -36.75270706 124.62098982 -36.73364258 134.55297852 C-36.71188087 146.02230422 -36.71892224 157.49134541 -36.7409482 168.96066421 C-36.75912335 178.82081768 -36.76164998 188.68088568 -36.75119352 198.54105049 C-36.74496948 204.42440677 -36.74409292 210.30762949 -36.75733948 216.1909771 C-36.76892784 221.72411228 -36.76081746 227.25688214 -36.73776245 232.78997803 C-36.73249108 234.81598874 -36.73396208 236.8420304 -36.74281311 238.86802864 C-36.97039561 256.68547778 -36.97039561 256.68547778 -28.19892967 271.71210212 C-18.73848317 279.84425911 -8.50929085 280.28023598 3.29824829 280.16836548 C5.05452796 280.17385453 6.81080103 280.18196542 8.56705797 280.19245279 C13.36656958 280.21352984 18.16533098 280.19743283 22.96480942 280.17495179 C28.15096429 280.15720981 33.33702404 280.17417135 38.5231781 280.18667603 C48.67175338 280.20562173 58.8200436 280.19247951 68.96859767 280.16815014 C80.79124542 280.14086627 92.61382578 280.14418967 104.43649702 280.1484168 C125.532186 280.15479201 146.62773978 280.13148642 167.72338867 280.09228516 C188.18664669 280.05426912 208.6497463 280.04011315 229.11303711 280.05126953 C251.40738151 280.06338827 273.7016563 280.06302594 295.99599493 280.04029787 C298.37365619 280.03788333 300.75131746 280.03547136 303.12897873 280.03306198 C304.29877862 280.0318549 305.46857851 280.03064783 306.67382688 280.02940417 C314.91224499 280.02164996 323.15063716 280.02243148 331.38905716 280.02623367 C341.42914655 280.03048017 351.46909731 280.02000956 361.50914766 279.99100657 C366.63040535 279.97653128 371.75146125 279.96835368 376.87273598 279.97749329 C381.56314546 279.98566031 386.25313875 279.97527568 390.94348519 279.95024113 C392.63776531 279.9443971 394.33208484 279.94523397 396.02635475 279.95352729 C407.33584188 280.0038491 417.52861638 279.33167043 426.25268555 271.26757812 C431.98283889 264.37098135 433.9357577 256.80140054 433.94847107 248.05360413 C433.95355889 247.18971099 433.95864671 246.32581785 433.9638887 245.43574613 C433.97963395 242.52951271 433.98814385 239.6233042 433.99658203 236.71704102 C434.00611907 234.63757163 434.01601017 232.55810384 434.02622986 230.4786377 C434.057641 223.63747038 434.07788888 216.79629083 434.09643555 209.95507812 C434.10138153 208.20878274 434.10138153 208.20878274 434.10642743 206.42720866 C434.13721645 195.44482345 434.16392203 184.46243549 434.18084621 173.48001957 C434.20273792 159.43882393 434.24467098 145.39801142 434.31428379 131.35696894 C434.36157742 121.48164555 434.38578722 111.60642532 434.3930431 101.73099226 C434.39799243 95.83504926 434.41300502 89.93953787 434.4527874 84.04371834 C434.4897599 78.49090067 434.49802832 72.93875921 434.48478127 67.38584137 C434.48483504 65.35419187 434.49506098 63.3225116 434.5165329 61.29097557 C434.63870655 49.07255541 434.4012169 39.33594729 426.19974422 29.5190134 C417.19445046 20.85407091 405.8521154 20.85324536 394.14233398 20.95336914 C392.47573699 20.95281957 390.80913975 20.95043974 389.14254761 20.94638062 C385.5717926 20.94122745 382.00134613 20.94820799 378.43062592 20.96463203 C372.78245628 20.9898481 367.13458778 20.9834411 361.48638916 20.97215271 C347.46505335 20.94900561 333.44380669 20.96740895 319.42248535 20.99365234 C308.50866703 21.01359986 297.59509041 21.02218663 286.68127179 20.99671596 C281.06783661 20.98490707 275.45509116 20.99653646 269.84172773 21.02596867 C266.35165958 21.03922846 262.86185869 21.03180371 259.37179947 21.0186882 C257.75528989 21.01683275 256.13874408 21.0235381 254.52231216 21.03949165 C252.31279225 21.0601072 250.10543328 21.04990253 247.89593506 21.03224182 C246.04325579 21.03588666 246.04325579 21.03588666 244.15314865 21.03960514 C239.66173629 20.21256226 238.01357199 18.60682597 234.7878418 15.41992188 C233.23759716 12.31943259 233.49792164 9.8409797 233.7878418 6.41992188 C235.58346585 3.66663166 236.84039102 1.89364726 239.7878418 0.41992188 C242.05383321 0.31666883 244.32294823 0.28036519 246.59127808 0.27275085 C247.2991418 0.26907417 248.00700552 0.26539748 248.73631966 0.26160938 C251.12052569 0.25055136 253.50468816 0.24672502 255.88891602 0.24291992 C257.59385823 0.23665651 259.29879907 0.23000982 261.0037384 0.2230072 C266.61665898 0.20193739 272.22957991 0.19159726 277.8425293 0.18164062 C279.77574808 0.17759317 281.70896672 0.17347625 283.64218521 0.16929054 C292.73085864 0.15022689 301.81952391 0.13600232 310.9082135 0.12767857 C321.38740299 0.11792265 331.86638032 0.09165117 342.3454951 0.05117768 C350.4501163 0.02095437 358.55467694 0.00620353 366.65935338 0.00289756 C371.49663962 0.00055275 376.33369954 -0.00833227 381.17092514 -0.03356361 C385.72968764 -0.05695603 390.28807666 -0.06103295 394.84688377 -0.05080223 C396.51246703 -0.05030935 398.17806936 -0.05655614 399.8435955 -0.07035828 C416.04943065 -0.19704378 429.29682015 3.42965155 441.5378418 14.60742188 C450.70273982 24.43325005 455.27305033 36.60833489 455.17552185 49.89376831 C455.18360016 51.24145678 455.18360016 51.24145678 455.19184166 52.61637127 C455.20603793 55.5977437 455.19903821 58.57866689 455.19189453 61.56005859 C455.19760247 63.70952712 455.20456837 65.85899262 455.21269226 68.00845337 C455.23059232 73.82670712 455.22946111 79.6448098 455.22374988 85.46308279 C455.22065332 90.32873715 455.22675572 95.19436269 455.23278862 100.06001294 C455.24682205 111.54312559 455.24528252 123.02616384 455.23388672 134.50927734 C455.22240796 146.33700404 455.23647995 158.16450392 455.26328319 169.99220073 C455.28546886 180.16492107 455.29207106 190.33757035 455.28620678 200.51031315 C455.28284273 206.57816763 455.28521564 212.64587676 455.30245781 218.71371078 C455.31797034 224.42167182 455.31392341 230.12929793 455.29515266 235.83724594 C455.29147866 237.92531268 455.29454034 240.01340448 455.30503845 242.10144806 C455.38662466 259.6782284 452.90730776 273.6922933 440.6003418 287.16992188 C427.86672318 299.04701906 413.83132925 300.8708385 397.26565552 300.80760193 C395.48366011 300.8117786 393.70166736 300.81725794 391.91967952 300.82392174 C387.03990718 300.8383513 382.16030409 300.83413939 377.28052258 300.82675493 C372.01114656 300.82201941 366.74180694 300.83453652 361.47244263 300.84477234 C351.15589996 300.86195814 340.83941821 300.86280079 330.52286495 300.85755944 C322.13647191 300.85351609 313.75009686 300.85496326 305.36370468 300.86030769 C303.57249996 300.86143033 303.57249996 300.86143033 301.74510928 300.86257564 C299.31912939 300.86410713 296.89314951 300.86564548 294.46716963 300.86719061 C271.72276896 300.88091487 248.9784027 300.87547848 226.23400281 300.86400539 C205.43342899 300.85407319 184.63294411 300.86701364 163.83238401 300.89093959 C142.46572575 300.91533122 121.09910892 300.92493829 99.73243701 300.91828686 C87.74012787 300.91479478 75.74788714 300.91702603 63.75558853 300.93453789 C53.54681158 300.94926062 43.33815121 300.94989429 33.12937655 300.93246698 C27.9228123 300.92395527 22.71645633 300.92181176 17.50990295 300.93711853 C12.73914744 300.95097024 7.96877853 300.94619609 3.19804536 300.92687929 C1.47674354 300.92312049 -0.24458927 300.92603779 -1.96586345 300.93649095 C-18.29334181 301.02855718 -31.61506269 297.50705252 -43.9621582 286.23242188 C-53.12705623 276.4065937 -57.69736674 264.23150886 -57.59983826 250.94607544 C-57.60522379 250.04761646 -57.61060933 249.14915748 -57.61615807 248.22347248 C-57.63035434 245.24210005 -57.62335461 242.26117686 -57.61621094 239.27978516 C-57.62191888 237.13031663 -57.62888478 234.98085113 -57.63700867 232.83139038 C-57.65490873 227.01313663 -57.65377752 221.19503395 -57.64806628 215.37676096 C-57.64496972 210.5111066 -57.65107213 205.64548106 -57.65710503 200.77983081 C-57.67113846 189.29671816 -57.66959892 177.81367991 -57.65820312 166.33056641 C-57.64672437 154.50283971 -57.66079636 142.67533983 -57.6875996 130.84764302 C-57.70978526 120.67492268 -57.71638746 110.5022734 -57.71052319 100.3295306 C-57.70715914 94.26167612 -57.70953205 88.19396699 -57.72677422 82.12613297 C-57.74228675 76.41817193 -57.73823981 70.71054582 -57.71946907 65.00259781 C-57.71579507 62.91453107 -57.71885675 60.82643927 -57.72935486 58.73839569 C-57.81094107 41.16161535 -55.33162416 27.14755045 -43.0246582 13.66992188 C-30.40034835 1.89478084 -16.43865278 -0.03319129 0 0 Z " fill="#000000" transform="translate(57.212158203125,105.580078125)"/>
<path d="M0 0 C11.84539876 7.69281147 20.41494095 18.06861807 23.625 32.125 C25.29810318 46.17678652 24.1454482 59.8597179 15.625 71.625 C14.63468937 72.79990254 13.63550159 73.96741732 12.625 75.125 C11.903125 76.135625 11.18125 77.14625 10.4375 78.1875 C4.1828779 85.52119428 -5.36851474 89.40991692 -14.375 92.125 C-14.98472656 92.31707031 -15.59445313 92.50914062 -16.22265625 92.70703125 C-29.85198765 95.35374352 -42.58401872 92.09600555 -54.1328125 84.6796875 C-65.09796313 77.07667365 -72.89058598 66.48441311 -75.375 53.125 C-77.24645926 36.99282988 -74.72681732 23.65521722 -64.6015625 10.62890625 C-47.88026008 -8.17522507 -21.75494987 -12.45012192 0 0 Z " fill="#030201" transform="translate(264.375,272.875)"/>
<path d="M0 0 C4.22504206 2.31181547 7.14989566 4.33918275 8.66674805 9.08691406 C8.86308838 9.88838867 9.05942871 10.68986328 9.26171875 11.515625 C9.49036621 12.42691162 9.71901367 13.33819824 9.95458984 14.27709961 C10.1964502 15.25815674 10.43831055 16.23921387 10.6875 17.25 C13.73248785 29.29224321 17.28561482 41.14942141 21 53 C23.46160794 47.6866157 24.98717956 42.50520057 26.3125 36.8125 C28.08715497 29.52754133 29.94098885 22.27270989 32 15.0625 C32.22469971 14.22887939 32.44939941 13.39525879 32.6809082 12.53637695 C34.16083476 7.46985387 35.79307474 4.44509424 40 1 C43.10953379 -0.5547669 45.56266761 -0.28644437 49 0 C54.02151409 2.51075704 55.8873214 4.88409032 58 10 C58.8917814 13.62631775 59.50889939 17.28619889 60.12109375 20.96875 C60.30712662 22.04008179 60.49315948 23.11141357 60.68482971 24.21520996 C61.27795953 27.64200966 61.85808645 31.0708572 62.4375 34.5 C63.01405001 37.85839774 63.59326282 41.21632844 64.17276001 44.57421875 C64.55491019 46.79515266 64.93461129 49.01650938 65.31185913 51.23828125 C66.21810583 56.56103669 67.15449309 61.87388858 68.17626953 67.17578125 C68.36286636 68.15430054 68.5494632 69.13281982 68.74171448 70.14099121 C69.08913087 71.94874652 69.44443509 73.75501529 69.80992126 75.5592041 C72.75983058 90.98078963 72.75983058 90.98078963 69.95228577 95.79748535 C67.28870478 98.3468573 64.5180888 99.34643427 60.9375 99.625 C56.1470248 98.86460711 55.03394737 97.69415851 52 94 C50.99609375 91.00390625 50.99609375 91.00390625 50.4375 87.5625 C50.32946045 86.93359863 50.2214209 86.30469727 50.11010742 85.65673828 C49.8672915 84.24292029 49.63214834 82.82777031 49.40332031 81.41162109 C48.94985127 78.70013976 48.44329727 76.00150511 47.9296875 73.30078125 C47.55693301 71.32558849 47.18453566 69.35032829 46.8125 67.375 C46.63323975 66.4269751 46.45397949 65.4789502 46.26928711 64.50219727 C46.10436768 63.60170654 45.93944824 62.70121582 45.76953125 61.7734375 C45.62104736 60.97341309 45.47256348 60.17338867 45.31958008 59.34912109 C44.98258301 56.87197379 44.94545495 54.49688942 45 52 C44.34 52 43.68 52 43 52 C42.82210937 53.73443359 42.82210937 53.73443359 42.640625 55.50390625 C42.09957468 59.81055326 41.03751659 63.80130372 39.75 67.9375 C39.2960855 69.42033147 38.84298537 70.90341243 38.390625 72.38671875 C38.04354492 73.52052979 38.04354492 73.52052979 37.68945312 74.67724609 C36.99669996 77.01111775 36.35847362 79.35394467 35.734375 81.70703125 C35.5271582 82.46830322 35.31994141 83.2295752 35.10644531 84.01391602 C34.71278486 85.46542007 34.33118361 86.92026874 33.96386719 88.37866211 C32.64039637 93.1539349 30.87955738 95.91832476 27 99 C22.6596777 100.63799989 18.9822193 100.37064879 14.6875 98.75 C10.70927479 94.67925792 9.56236346 90.40393948 8 85 C7.70826904 83.99598145 7.70826904 83.99598145 7.41064453 82.97167969 C5.87867654 77.66420588 4.42862019 72.33608334 3 67 C2.79810059 66.24879883 2.59620117 65.49759766 2.38818359 64.72363281 C1.24955834 60.48484578 0.12037479 56.24365424 -1 52 C-1.54353059 54.67571885 -2.08518803 57.35179896 -2.62475586 60.02832031 C-3.08519728 62.31074983 -3.54827324 64.59264938 -4.01391602 66.87402344 C-5.04825913 71.99393129 -6.05490577 77.09706336 -6.7890625 82.26953125 C-6.90209717 83.036604 -7.01513184 83.80367676 -7.1315918 84.59399414 C-7.41866482 86.61725182 -7.67714397 88.64450822 -7.93359375 90.671875 C-9.38492563 95.20130635 -11.05636613 96.39368752 -15 99 C-18.11254409 99.95683996 -19.6327659 99.5344816 -23 99 C-26 97.3125 -26 97.3125 -28 94 C-28.87664433 85.16769758 -27.52791079 76.52241307 -25.91796875 67.859375 C-25.70312332 66.65291321 -25.48827789 65.44645142 -25.266922 64.20343018 C-24.58426685 60.38364715 -23.88625063 56.56686782 -23.1875 52.75 C-22.73008449 50.20721727 -22.27369633 47.66424951 -21.81835938 45.12109375 C-20.94593089 40.25126516 -20.06138356 35.38386468 -19.16943359 30.51757812 C-18.44659937 26.54842769 -17.76216759 22.57902136 -17.14697266 18.59179688 C-17.02195877 17.80395813 -16.89694489 17.01611938 -16.7681427 16.20440674 C-16.45516877 14.20350498 -16.15896177 12.1999991 -15.86450195 10.19628906 C-14.72034794 5.96605345 -12.7305088 3.25312706 -9.1875 0.6875 C-5.93315587 -0.33529387 -3.39535546 -0.35124367 0 0 Z " fill="#030201" transform="translate(97,266)"/>
<path d="M0 0 C2.13794422 -0.00960226 4.27488366 -0.04055909 6.41259766 -0.07226562 C19.15666993 -0.17264132 28.42521905 2.29932509 38.08447266 10.95117188 C49.68606209 23.03722328 51.87985977 38.81260031 51.55322266 54.78710938 C50.98672333 66.31202048 47.49378963 77.21425476 40.17431641 86.24023438 C39.57619141 87.12710938 38.97806641 88.01398438 38.36181641 88.92773438 C30.50660649 97.23181342 21.02508094 100.26380079 9.81103516 100.70898438 C7.83315745 100.72861592 5.85516083 100.74797734 3.87719727 100.74121094 C1.84658767 100.740227 -0.18037149 100.78222551 -2.21044922 100.82617188 C-3.50273437 100.82875 -4.79501953 100.83132812 -6.12646484 100.83398438 C-7.29346924 100.84107422 -8.46047363 100.84816406 -9.6628418 100.85546875 C-13.76465741 100.05758567 -15.23264737 98.44601973 -17.82568359 95.24023438 C-19.07436936 91.49417708 -18.99738474 87.98815177 -19.01855469 84.08447266 C-19.02673218 83.25325897 -19.03490967 82.42204529 -19.04333496 81.56564331 C-19.06815553 78.81395181 -19.08469455 76.0623117 -19.09912109 73.31054688 C-19.10444477 72.37073849 -19.10976845 71.4309301 -19.11525345 70.46264267 C-19.14196783 65.49024013 -19.16135003 60.51786258 -19.17578125 55.54541016 C-19.19244421 50.40813872 -19.23724057 45.27150691 -19.28815269 40.13447762 C-19.3217888 36.18479669 -19.33335453 32.23526849 -19.33900833 28.28545761 C-19.34572858 26.3916013 -19.36097073 24.4977553 -19.38489914 22.60403824 C-19.41648234 19.95375404 -19.41659838 17.30520775 -19.40917969 14.65478516 C-19.42558502 13.87331116 -19.44199036 13.09183716 -19.45889282 12.28668213 C-19.41195515 8.18929622 -19.01629652 6.46855747 -16.35171509 3.27682495 C-15.51812469 2.60475006 -14.6845343 1.93267517 -13.82568359 1.24023438 C-11.1973308 -1.38811841 -3.77179618 0.01024249 0 0 Z " fill="#020101" transform="translate(359.82568359375,145.759765625)"/>
<path d="M0 0 C2.05482923 -0.01700978 4.10796118 -0.06083882 6.16235352 -0.10522461 C17.01867431 -0.17430546 25.77375512 1.44912008 33.82836914 9.12719727 C39.61422835 15.98863286 42.6350116 23.34786922 42.10571289 32.34594727 C40.75045206 41.24352927 37.43910963 48.28972522 30.65649414 54.29516602 C25.03609754 58.29516602 25.03609754 58.29516602 21.65649414 58.29516602 C24.79448095 64.20057335 28.61125369 69.26771584 32.78149414 74.48266602 C34.03732 76.05692429 35.29004893 77.63365926 36.53930664 79.21313477 C37.36519287 80.24603638 37.36519287 80.24603638 38.20776367 81.29980469 C41.15435771 85.3581992 42.17402894 88.22332495 41.65649414 93.29516602 C40.37960568 96.10432063 39.34549597 97.79623366 36.84399414 99.60766602 C33.10206332 100.78370142 30.03855922 100.87520369 26.39477539 99.34594727 C22.30430408 96.28247018 19.71388601 92.31749681 16.78149414 88.17016602 C15.59783155 86.52084276 14.41293763 84.87240249 13.22680664 83.22485352 C12.64576172 82.415 12.0647168 81.60514648 11.46606445 80.77075195 C8.61895973 76.87576519 5.64658954 73.08094825 2.65649414 69.29516602 C2.64191162 69.9604834 2.6273291 70.62580078 2.61230469 71.3112793 C2.53748049 74.34813715 2.44093399 77.38393692 2.34399414 80.42016602 C2.32143555 81.46688477 2.29887695 82.51360352 2.27563477 83.59204102 C2.08214207 89.15055837 1.89590391 93.55456636 -1.34350586 98.29516602 C-4.92817044 100.4265882 -8.22973341 100.89509116 -12.34350586 100.29516602 C-15.44515355 97.74492236 -17.06917002 96.11817355 -18.34350586 92.29516602 C-18.46032343 89.56865839 -18.52158637 86.86674604 -18.53637695 84.1394043 C-18.54455444 83.30819061 -18.55273193 82.47697693 -18.56115723 81.62057495 C-18.5859778 78.86888345 -18.60251681 76.11724334 -18.61694336 73.36547852 C-18.62226704 72.42567013 -18.62759071 71.48586174 -18.63307571 70.51757431 C-18.6597901 65.54517177 -18.6791723 60.57279422 -18.69360352 55.6003418 C-18.71026647 50.46307036 -18.75506283 45.32643855 -18.80597496 40.18940926 C-18.83961106 36.23972833 -18.85117679 32.29020013 -18.8568306 28.34038925 C-18.86355085 26.44653294 -18.878793 24.55268695 -18.90272141 22.65896988 C-18.93430461 20.00868568 -18.93442064 17.36013939 -18.92700195 14.7097168 C-18.94340729 13.9282428 -18.95981262 13.1467688 -18.97671509 12.34161377 C-18.92977742 8.24422787 -18.53411878 6.52348911 -15.86953735 3.33175659 C-15.03594696 2.6596817 -14.20235657 1.98760681 -13.34350586 1.29516602 C-10.71363838 -1.33470146 -3.56422231 0.02050087 0 0 Z " fill="#020101" transform="translate(119.343505859375,145.704833984375)"/>
<path d="M0 0 C1.35963671 -0.02136985 2.71914403 -0.05521711 4.078125 -0.10253906 C15.84439671 -0.50782496 24.77054114 1.80470848 33.69091797 9.7175293 C40.25536634 17.13262746 41.58415115 24.82107747 41.13623047 34.5222168 C40.20026211 42.68320409 36.41894319 48.48623521 30.46435547 53.9987793 C27.52811674 56.32707432 24.52030971 58.4050293 20.69091797 58.4050293 C21.70704887 59.82761256 22.72332943 61.25008909 23.74023438 62.67211914 C24.6329936 63.92329736 25.52324747 65.17626659 26.41113281 66.4309082 C28.74639617 69.72326016 31.11302394 72.97669294 33.58154297 76.1706543 C34.03996582 76.77635254 34.49838867 77.38205078 34.97070312 78.00610352 C35.84577908 79.1600603 36.73547476 80.30312313 37.64160156 81.43286133 C41.04217831 85.97471816 41.21646705 88.95175115 40.69091797 94.4050293 C39.25341797 97.3425293 39.25341797 97.3425293 36.69091797 99.4050293 C33.60110127 100.45451163 30.91277211 100.9993519 27.69091797 100.4050293 C22.10776838 96.63449128 18.56589681 91.52849853 14.69091797 86.0925293 C13.50370682 84.45039335 12.31620947 82.80846427 11.12841797 81.16674805 C10.55865234 80.37445801 9.98888672 79.58216797 9.40185547 78.76586914 C6.87513604 75.2793713 4.28887202 71.83863477 1.69091797 68.4050293 C1.68157227 69.1664624 1.67222656 69.92789551 1.66259766 70.71240234 C1.6088086 74.1730955 1.52517613 77.63244947 1.44091797 81.0925293 C1.41964844 82.88980469 1.41964844 82.88980469 1.39794922 84.72338867 C1.36572266 85.88032227 1.33349609 87.03725586 1.30029297 88.22924805 C1.2793457 89.29232178 1.25839844 90.35539551 1.23681641 91.45068359 C0.56675211 95.07700205 -0.76643951 96.77925908 -3.30908203 99.4050293 C-6.30018192 100.56615394 -9.12282735 100.71172761 -12.30908203 100.4050293 C-15.2305162 98.63999615 -16.7883202 97.44655295 -18.30908203 94.4050293 C-18.4231581 91.65512778 -18.47692777 88.92997206 -18.48608398 86.17919922 C-18.49265518 85.32862442 -18.49922638 84.47804962 -18.5059967 83.60169983 C-18.52574899 80.77963173 -18.53739642 77.95761688 -18.54736328 75.13549805 C-18.55143881 74.17270746 -18.55551434 73.20991688 -18.55971336 72.21795082 C-18.58058207 67.1223535 -18.59488047 62.02678318 -18.60424805 56.93115234 C-18.61531579 51.66504026 -18.64971765 46.39935034 -18.68941975 41.13338757 C-18.71555126 37.08676868 -18.72393679 33.04025091 -18.72752953 28.99355507 C-18.73240425 27.05227112 -18.74404335 25.11099195 -18.76256752 23.16979027 C-18.78688594 20.45253317 -18.78600742 17.73637532 -18.77905273 15.01904297 C-18.79186279 14.21729645 -18.80467285 13.41554993 -18.81787109 12.58950806 C-18.78266254 8.81489035 -18.45977767 6.6405144 -16.40470886 3.42915344 C-11.80983064 -1.00894776 -6.08308504 0.0715402 0 0 Z " fill="#010100" transform="translate(327.30908203125,265.594970703125)"/>
<path d="M0 0 C0.89439285 -0.00570007 1.78878571 -0.01140015 2.71028137 -0.01727295 C4.60933239 -0.02674117 6.50839997 -0.03326413 8.4074707 -0.03710938 C11.30254255 -0.04677653 14.19689302 -0.07776639 17.09179688 -0.109375 C18.9361937 -0.1159087 20.78059561 -0.12115773 22.625 -0.125 C23.48772018 -0.1373468 24.35044037 -0.1496936 25.23930359 -0.16241455 C30.27902038 -0.14390593 33.80722242 0.34534784 38.14453125 3.203125 C40.62839184 6.92891589 40.52495245 8.79023902 40.14453125 13.203125 C38.82129439 16.33710704 37.97696081 17.78025409 34.9309082 19.32763672 C31.72507468 20.33491956 29.10789992 20.43026594 25.75 20.3984375 C24.54794922 20.39199219 23.34589844 20.38554687 22.10742188 20.37890625 C20.86154297 20.36214844 19.61566406 20.34539062 18.33203125 20.328125 C16.43420898 20.31458984 16.43420898 20.31458984 14.49804688 20.30078125 C11.3801272 20.27724978 8.26230503 20.24137989 5.14453125 20.203125 C5.14453125 26.803125 5.14453125 33.403125 5.14453125 40.203125 C6.66304687 40.16832031 8.1815625 40.13351563 9.74609375 40.09765625 C11.75389515 40.0695095 13.76170856 40.04221029 15.76953125 40.015625 C17.26806641 39.97791992 17.26806641 39.97791992 18.796875 39.93945312 C24.31202573 39.88466686 28.44856289 39.9433023 33.14453125 43.203125 C35.62839184 46.92891589 35.52495245 48.79023902 35.14453125 53.203125 C33.80287951 56.38072123 32.97072109 57.79599647 29.86254883 59.32763672 C27.01067602 60.2462405 24.82972724 60.43336121 21.84375 60.3984375 C20.86728516 60.39199219 19.89082031 60.38554687 18.88476562 60.37890625 C17.87736328 60.36214844 16.86996094 60.34539062 15.83203125 60.328125 C14.80529297 60.31910156 13.77855469 60.31007812 12.72070312 60.30078125 C10.19521198 60.27728831 7.66984133 60.24141951 5.14453125 60.203125 C5.14453125 66.803125 5.14453125 73.403125 5.14453125 80.203125 C7.96371094 80.15091797 7.96371094 80.15091797 10.83984375 80.09765625 C13.3163973 80.0695136 15.79296053 80.04221395 18.26953125 80.015625 C19.50703125 79.99048828 20.74453125 79.96535156 22.01953125 79.93945312 C23.21835938 79.92978516 24.4171875 79.92011719 25.65234375 79.91015625 C26.7520752 79.8944458 27.85180664 79.87873535 28.98486328 79.86254883 C32.65533782 80.25818412 35.00859799 81.27814963 38.14453125 83.203125 C40.62839184 86.92891589 40.52495245 88.79023902 40.14453125 93.203125 C38.86912487 96.22382432 37.99867321 97.73533664 35.11132812 99.31665039 C31.00668158 100.54311283 27.1271715 100.54748534 22.86328125 100.57421875 C21.97217651 100.58324722 21.08107178 100.5922757 20.16296387 100.60157776 C18.28364406 100.61604973 16.40427422 100.62495939 14.52490234 100.62866211 C11.65376164 100.64058666 8.78475189 100.68982395 5.9140625 100.74023438 C4.08464587 100.74969625 2.25521609 100.75693241 0.42578125 100.76171875 C-0.429552 100.78125107 -1.28488525 100.80078339 -2.1661377 100.82090759 C-6.54291136 100.78783574 -8.30936345 100.62794721 -11.87304688 97.85571289 C-15.20088938 93.40287929 -15.01938261 89.3869953 -15.04833984 84.04736328 C-15.05651733 83.2161496 -15.06469482 82.38493591 -15.07312012 81.52853394 C-15.09794069 78.77684243 -15.1144797 76.02520232 -15.12890625 73.2734375 C-15.13422993 72.33362911 -15.1395536 71.39382072 -15.1450386 70.42553329 C-15.17175299 65.45313076 -15.19113519 60.4807532 -15.20556641 55.50830078 C-15.22222936 50.37102935 -15.26702573 45.23439754 -15.31793785 40.09736824 C-15.35157395 36.14768731 -15.36313968 32.19815912 -15.36879349 28.24834824 C-15.37551374 26.35449192 -15.39075589 24.46064593 -15.4146843 22.56692886 C-15.4462675 19.91664467 -15.44638353 17.26809838 -15.43896484 14.61767578 C-15.45537018 13.83620178 -15.47177551 13.05472778 -15.48867798 12.24957275 C-15.44174031 8.15218685 -15.04608167 6.43144809 -12.38150024 3.23971558 C-11.54790985 2.56764069 -10.71431946 1.8955658 -9.85546875 1.203125 C-7.72684343 -0.92550032 -2.94792331 0.01435348 0 0 Z " fill="#010100" transform="translate(195.85546875,145.796875)"/>
<path d="M0 0 C4.45945488 3.58087571 6.11558463 7.16070117 7.5 12.5625 C7.70375244 13.30209961 7.90750488 14.04169922 8.11743164 14.80371094 C9.87402123 21.26407956 11.46432837 27.77069813 13.0546875 34.27368164 C14.77747237 41.27115761 16.74211257 48.18406105 18.75830078 55.10180664 C20.83564473 62.28500084 22.68269809 69.51342854 24.43945312 76.78125 C25.40787705 80.99795555 25.40787705 80.99795555 27 85 C27.3751455 89.97067782 27.15878799 93.05151502 24 97 C20.57840405 99.56619697 17.15155867 99.50984054 13 99 C7.14364049 95.1865566 5.64857997 88.46538067 4 82 C4 81.01 4 80.02 4 79 C-2.27 79 -8.54 79 -15 79 C-15.66 81.97 -16.32 84.94 -17 88 C-19.18978102 95.29927007 -19.18978102 95.29927007 -22.3125 98 C-26.6068524 99.59789857 -29.55897921 99.65500945 -33.75 97.75 C-36.19597914 95.84757178 -37.10040209 94.94413861 -38 92 C-38.28869889 86.70499994 -37.45730794 82.21531414 -35.9375 77.1875 C-35.47517281 75.59285016 -35.01432544 73.99777081 -34.5546875 72.40234375 C-34.30428711 71.5397998 -34.05388672 70.67725586 -33.79589844 69.78857422 C-32.32243692 64.62603513 -30.94915381 59.43639084 -29.5625 54.25 C-28.96388605 52.02074083 -28.36492773 49.7915741 -27.765625 47.5625 C-27.47107422 46.46679688 -27.17652344 45.37109375 -26.87304688 44.2421875 C-25.0448061 37.4527475 -23.20520394 30.666729 -21.328125 23.890625 C-20.48925273 20.84941764 -19.70351364 17.80599954 -18.984375 14.734375 C-16.19031803 3.41607644 -16.19031803 3.41607644 -10.99609375 -0.203125 C-7.24372006 -1.7011372 -3.7086763 -1.53982143 0 0 Z " fill="#030201" transform="translate(294,147)"/>
<path d="M0 0 C1.34302437 -0.00855011 1.34302437 -0.00855011 2.71318054 -0.01727295 C4.61045142 -0.0267289 6.50773876 -0.03325929 8.4050293 -0.03710938 C11.30221405 -0.04680139 14.19868537 -0.07781331 17.09570312 -0.109375 C18.93879787 -0.11590643 20.78189769 -0.12115635 22.625 -0.125 C23.48974442 -0.1373468 24.35448883 -0.1496936 25.24543762 -0.16241455 C29.98602981 -0.14493706 33.19041358 0.07797568 37.01171875 3.203125 C39.47100619 6.89205616 39.70477454 9.91953921 39.01171875 14.203125 C36.88723605 17.64625214 35.86319234 18.91930047 32.01171875 20.203125 C29.8737735 20.2865054 27.73329866 20.31046247 25.59375 20.30078125 C24.34013672 20.29755859 23.08652344 20.29433594 21.79492188 20.29101562 C20.48458984 20.28263672 19.17425781 20.27425781 17.82421875 20.265625 C16.48893394 20.26060817 15.15364734 20.25604559 13.81835938 20.25195312 C10.54945995 20.24015204 7.28058373 20.22221636 4.01171875 20.203125 C4.01171875 26.803125 4.01171875 33.403125 4.01171875 40.203125 C5.61402344 40.16832031 7.21632813 40.13351562 8.8671875 40.09765625 C10.97785409 40.06951403 13.08853203 40.04221433 15.19921875 40.015625 C16.25431641 39.99048828 17.30941406 39.96535156 18.39648438 39.93945312 C19.92885742 39.92495117 19.92885742 39.92495117 21.4921875 39.91015625 C22.42957764 39.8944458 23.36696777 39.87873535 24.33276367 39.86254883 C27.56959163 40.27404751 29.39132825 41.2847601 32.01171875 43.203125 C34.47100619 46.89205616 34.70477454 49.91953921 34.01171875 54.203125 C31.88723605 57.64625214 30.86319234 58.91930047 27.01171875 60.203125 C25.23858024 60.28522292 23.462511 60.31058794 21.6875 60.30078125 C20.65947266 60.29755859 19.63144531 60.29433594 18.57226562 60.29101562 C17.50041016 60.28263672 16.42855469 60.27425781 15.32421875 60.265625 C14.24076172 60.26111328 13.15730469 60.25660156 12.04101562 60.25195312 C9.36455981 60.24016257 6.68813236 60.22222708 4.01171875 60.203125 C4.01171875 66.803125 4.01171875 73.403125 4.01171875 80.203125 C5.97496094 80.16832031 7.93820312 80.13351562 9.9609375 80.09765625 C12.54035603 80.06951714 15.11978381 80.04221711 17.69921875 80.015625 C18.99279297 79.99048828 20.28636719 79.96535156 21.61914062 79.93945312 C22.86630859 79.92978516 24.11347656 79.92011719 25.3984375 79.91015625 C27.11873169 79.88659058 27.11873169 79.88659058 28.8737793 79.86254883 C32.39164594 80.24436039 34.20417503 81.08421823 37.01171875 83.203125 C39.47100619 86.89205616 39.70477454 89.91953921 39.01171875 94.203125 C36.88723605 97.64625214 35.86319234 98.91930047 32.01171875 100.203125 C30.67286823 100.30773117 29.32961692 100.3614198 27.98681641 100.38012695 C26.78008774 100.39937981 26.78008774 100.39937981 25.54898071 100.41902161 C24.68332489 100.42640854 23.81766907 100.43379547 22.92578125 100.44140625 C21.5848793 100.45351387 21.5848793 100.45351387 20.21688843 100.46586609 C18.32560153 100.4796927 16.43428982 100.49042122 14.54296875 100.49829102 C11.65446691 100.51551914 8.76710538 100.5594191 5.87890625 100.60351562 C4.04037299 100.61364167 2.20183001 100.62215805 0.36328125 100.62890625 C-0.49832611 100.64641434 -1.35993347 100.66392242 -2.24765015 100.68196106 C-6.36096104 100.66711903 -8.45026801 100.54167607 -12.01025391 98.30151367 C-15.61580127 94.47657173 -15.14861104 90.98606263 -15.1652832 85.97729492 C-15.1718544 85.12672012 -15.1784256 84.27614532 -15.18519592 83.39979553 C-15.20494821 80.57772743 -15.21659564 77.75571258 -15.2265625 74.93359375 C-15.23063803 73.97080317 -15.23471355 73.00801258 -15.23891258 72.01604652 C-15.25978129 66.9204492 -15.27407969 61.82487888 -15.28344727 56.72924805 C-15.29451501 51.46313596 -15.32891687 46.19744604 -15.36861897 40.93148327 C-15.39475048 36.88486438 -15.40313601 32.83834662 -15.40672874 28.79165077 C-15.41160347 26.85036683 -15.42324257 24.90908766 -15.44176674 22.96788597 C-15.46608516 20.25062887 -15.46520664 17.53447102 -15.45825195 14.81713867 C-15.47106201 14.01539215 -15.48387207 13.21364563 -15.49707031 12.38760376 C-15.46186176 8.61298606 -15.13897689 6.43861011 -13.08390808 3.22724915 C-9.13021925 -0.59154002 -5.22399909 0.02549486 0 0 Z " fill="#000000" transform="translate(403.98828125,265.796875)"/>
<path d="M0 0 C7.21501507 4.07391352 12.8654252 8.87347939 15.96484375 16.72265625 C18.00273058 25.1033151 17.74384599 34.38181084 14.00390625 42.2265625 C9.17748195 49.96524849 2.39739217 54.95561069 -6.375 57.4375 C-15.66351582 58.68851584 -23.02261207 57.3848861 -30.5625 51.82421875 C-37.33585747 46.20880659 -41.79878784 40.09241938 -42.7109375 31.140625 C-42.82525395 21.03505062 -41.66931043 13.60601353 -34.625 6.0625 C-24.97923322 -2.86208795 -12.14487304 -5.758477 0 0 Z " fill="#FDD88D" transform="translate(251.375,288.5625)"/>
<path d="M0 0 C17.41463415 0 17.41463415 0 22 4 C29.92635612 12.75973468 30.45805524 23.52242479 30.25390625 34.88671875 C29.54441196 43.58621025 26.61065124 50.99826922 19.9375 56.8125 C13.11608008 61.89228079 10.33043577 60 0 60 C0 40.2 0 20.4 0 0 Z " fill="#FCD88D" transform="translate(361,166)"/>
<path d="M0 0 C13.52506793 -0.40985054 13.52506793 -0.40985054 18 3 C20.45928744 6.68893116 20.69305579 9.71641421 20 14 C17.8755173 17.44312714 16.85147359 18.71617547 13 20 C8.66328697 20.13501597 4.33988266 20.04296914 0 20 C0 13.4 0 6.8 0 0 Z " fill="#F6D289" transform="translate(328,286)"/>
<path d="M0 0 C13.16037736 -0.43867925 13.16037736 -0.43867925 18 3 C20.48386059 6.72579089 20.3804212 8.58711402 20 13 C18.67529088 16.13746898 17.82941566 17.57799098 14.78125 19.12890625 C11.60310288 20.12430907 9.01040163 20.19803081 5.6875 20.125 C3.810625 20.08375 1.93375 20.0425 0 20 C0 13.4 0 6.8 0 0 Z " fill="#FBD78D" transform="translate(121,166)"/>
<path d="M0 0 C3.06626454 2.23581789 4.5346273 3.89473984 6 7.375 C6 11.20702293 4.84995443 13.67008202 3 17 C0.30471694 19.25821013 -1.48357833 19.91209844 -4.9375 20.5 C-9.25011712 19.79589925 -10.88856971 18.03907145 -14 15 C-15.55024464 11.89951072 -15.28992015 9.42105782 -15 6 C-11.01973709 -0.10306979 -7.01950723 -1.07899161 0 0 Z " fill="#030302" transform="translate(261,106)"/>
<path d="M0 0 C3.2645028 3.2645028 3.93236055 7.41047299 4.125 11.9375 C4.08375 12.618125 4.0425 13.29875 4 14 C1.69 14 -0.62 14 -3 14 C-2.69147815 12.041036 -2.3780582 10.08284287 -2.0625 8.125 C-1.88847656 7.03445312 -1.71445312 5.94390625 -1.53515625 4.8203125 C-1 2 -1 2 0 0 Z " fill="#ECCA84" transform="translate(288,192)"/>
</svg>
